<?xml version="1.0" encoding="UTF-8" standalone="no"?>
<!DOCTYPE svg PUBLIC "-//W3C//DTD SVG 1.1//EN" "http://www.w3.org/Graphics/SVG/1.1/DTD/svg11.dtd">
<svg width="100%" height="100%" viewBox="0 0 32 32" version="1.1" xmlns="http://www.w3.org/2000/svg" xmlns:xlink="http://www.w3.org/1999/xlink" xml:space="preserve" xmlns:serif="http://www.serif.com/" style="fill-rule:evenodd;clip-rule:evenodd;stroke-linejoin:round;stroke-miterlimit:2;">
    <g transform="matrix(0.361194,0,0,0.361194,-34.3528,8.96728)">
        <g transform="matrix(1,0,0,1,93.478,37.685)">
            <path d="M2.143,-34.929L2.143,-0.786C2.143,-0.357 2.5,0 2.929,0L7.071,0C7.5,0 7.857,-0.357 7.857,-0.786L7.857,-4.929C7.857,-14 13.429,-18.571 21.357,-18.571C29.286,-18.571 34.857,-14 34.857,-4.929L34.857,-0.786C34.857,-0.357 35.214,0 35.643,0L39.786,0C40.214,0 40.571,-0.357 40.571,-0.786L40.571,-34.929C40.571,-35.357 40.214,-35.714 39.786,-35.714L35.643,-35.714C35.214,-35.714 34.857,-35.357 34.857,-34.929L34.857,-18.857C33.429,-21.214 28.571,-24.286 21.357,-24.286C14.143,-24.286 9.286,-21.214 7.857,-18.857L7.857,-34.929C7.857,-35.357 7.5,-35.714 7.071,-35.714L2.929,-35.714C2.5,-35.714 2.143,-35.357 2.143,-34.929Z" style="fill:rgb(51,51,51);fill-rule:nonzero;stroke:black;stroke-width:0.58px;"/>
        </g>
        <g transform="matrix(1,0,0,1,136.906,37.685)">
            <path d="M1.429,-16.643L1.429,-8.429C1.429,-3.357 4.786,0 9.857,0L36.214,0C36.643,0 37,-0.357 37,-0.786L37,-4.929C37,-5.357 36.643,-5.714 36.214,-5.714L10.714,-5.714C8.571,-5.714 7.143,-7.143 7.143,-9.286L7.143,-16.643C7.143,-24.714 11.143,-30.714 19.143,-30.714C27.143,-30.714 31.143,-24.714 31.143,-16.643L31.143,-12.143C31.143,-11.714 31.5,-11.357 31.929,-11.357L36.071,-11.357C36.5,-11.357 36.857,-11.714 36.857,-12.143L36.857,-16.643C36.857,-28.286 30.786,-36.429 19.143,-36.429C7.5,-36.429 1.429,-28.286 1.429,-16.643Z" style="fill:rgb(131,131,131);fill-rule:nonzero;stroke:black;stroke-width:0.58px;"/>
        </g>
        <g transform="matrix(1,0,0,1,175.335,37.685)">
            <path d="M2.929,-5.714L7.071,-5.714C7.5,-5.714 7.857,-5.357 7.857,-4.929L7.857,-0.786C7.857,-0.357 7.5,0 7.071,0L2.929,0C2.5,0 2.143,-0.357 2.143,-0.786L2.143,-4.929C2.143,-5.357 2.5,-5.714 2.929,-5.714Z" style="fill:rgb(51,51,51);fill-rule:nonzero;stroke:black;stroke-width:0.58px;"/>
        </g>
    </g>
</svg>
